HIERARCHY
ROOT hip
{
	OFFSET 0.000000 0.000000 0.000000 
	CHANNELS 6 Xposition Yposition Zposition Xrotation Zrotation Yrotation
	JOINT abdomen
	{
		OFFSET 0.000000 3.402643 0.000000 
		CHANNELS 3 Xrotation Zrotation Yrotation
		JOINT chest
		{
			OFFSET 0.000000 8.438565 -0.680529 
			CHANNELS 3 Xrotation Zrotation Yrotation
			JOINT neck
			{
				OFFSET 0.000000 10.207942 -0.272212 
				CHANNELS 3 Xrotation Zrotation Yrotation
				JOINT head
				{
					OFFSET 0.000000 3.130431 0.000000 
					CHANNELS 3 Xrotation Zrotation Yrotation
					End Site
					{
						OFFSET 0.000000 3.130435 0.000000 
					}
				}
			}
			JOINT lCollar
			{
				OFFSET 3.470700 6.669187 -0.816635 
				CHANNELS 3 Yrotation Zrotation Xrotation
				JOINT lShldr
				{
					OFFSET 3.198488 0.000000 0.000000 
					CHANNELS 3 Zrotation Yrotation Xrotation
					JOINT lForeArm
					{
						OFFSET 10.139888 0.000000 0.000000 
						CHANNELS 3 Yrotation Zrotation Xrotation
						JOINT lHand
						{
							OFFSET 8.370511 0.000000 0.000000 
							CHANNELS 3 Zrotation Yrotation Xrotation
							End Site
							{
								OFFSET 4.083176 0.000000 0.000000 
							}
						}
					}
				}
			}
			JOINT rCollar
			{
				OFFSET -3.470700 6.669187 -0.816635 
				CHANNELS 3 Yrotation Zrotation Xrotation
				JOINT rShldr
				{
					OFFSET -3.198488 0.000000 0.000000 
					CHANNELS 3 Zrotation Yrotation Xrotation
					JOINT rForeArm
					{
						OFFSET -10.139888 0.000000 0.000000 
						CHANNELS 3 Yrotation Zrotation Xrotation
						JOINT rHand
						{
							OFFSET -8.370511 0.000000 0.000000 
							CHANNELS 3 Zrotation Yrotation Xrotation
							End Site
							{
								OFFSET -4.083176 0.000000 0.000000 
							}
						}
					}
				}
			}
		}
	}
	JOINT lThigh
	{
		OFFSET 5.308129 -1.633274 1.361059 
		CHANNELS 3 Xrotation Zrotation Yrotation
		JOINT lShin
		{
			OFFSET -2.041588 -20.007561 0.000000 
			CHANNELS 3 Xrotation Zrotation Yrotation
			JOINT lFoot
			{
				OFFSET 0.000000 -19.190928 -1.224953 
				CHANNELS 3 Xrotation Yrotation Zrotation
				End Site
				{
					OFFSET 0.000000 -2.449906 4.627600 
				}
			}
		}
	}
	JOINT rThigh
	{
		OFFSET -5.308129 -1.633274 1.361059 
		CHANNELS 3 Xrotation Zrotation Yrotation
		JOINT rShin
		{
			OFFSET 2.041588 -20.007561 0.000000 
			CHANNELS 3 Xrotation Zrotation Yrotation
			JOINT rFoot
			{
				OFFSET 0.000000 -19.190928 -1.224953 
				CHANNELS 3 Xrotation Yrotation Zrotation
				End Site
				{
					OFFSET 0.000000 -2.449906 4.627600 
				}
			}
		}
	}
}
MOTION
Frames: 14
Frame Time: 0.016667
-47.841244 44.557796 11.594816 -4.069138 3.828500 170.056152 53.271362 6.469278 1.141115 4.010974 2.040588 -1.836585 -18.452690 1.161346 -0.353444 -4.710597 -7.376749 22.865398 -23.378891 -4.787179 -0.253960 -73.132942 -22.226105 18.676870 -36.842476 5.000000 -11.447818 2.566246 -14.719689 -45.000000 7.099583 14.434782 -0.769742 69.625984 23.361380 28.895573 55.892826 -4.434167 -4.017580 -0.261531 18.472996 -45.000000 -48.299919 32.831528 -0.413502 61.287292 -6.351439 -12.901454 -13.579542 1.671545 -12.643525 -29.806082 -25.444180 8.139962 56.857437 6.105276 10.428721 -25.140520 -13.784625 17.631760 
-47.687691 44.889915 11.288192 -3.244677 3.858958 170.192551 52.499157 6.357894 1.029275 3.847695 2.118782 -1.650753 -18.236364 1.001586 -0.299660 -4.273083 -7.665170 22.545639 -23.213299 -5.054372 -0.259448 -71.490044 -21.887344 17.229782 -38.153851 5.000000 -10.713902 3.039230 -14.898659 -45.000000 7.224645 14.298237 -0.762683 69.400269 23.036419 28.479046 55.997501 -3.903819 -3.652580 -0.259755 17.156477 -45.000000 -46.257782 32.664696 -0.272676 60.080853 -6.655818 -12.855945 -12.996981 2.092819 -12.313803 -27.800533 -25.213457 7.898874 55.648090 6.106957 9.974027 -24.750046 -13.936481 17.539354 
-47.567791 45.260086 10.969380 -2.312213 3.752441 170.135376 51.696594 6.082613 0.866300 3.579731 2.138409 -1.426249 -17.708590 0.985198 -0.277431 -3.507433 -7.955713 22.207153 -23.283087 -5.356699 -0.275063 -69.535278 -21.527359 15.881566 -39.386482 5.000000 -10.011314 3.573319 -14.535022 -45.000000 7.416367 14.034905 -0.749058 69.154343 22.818949 28.169353 56.156212 -3.424408 -3.347069 -0.288922 15.612052 -45.000000 -43.757427 32.410461 0.176470 58.688831 -6.938259 -12.662584 -12.294396 2.420412 -12.056337 -25.726442 -25.113039 7.843585 54.234745 6.193123 9.557935 -24.301115 -14.017830 17.429306 
-47.447891 45.630253 10.650574 -1.389302 3.645958 170.077530 50.905014 5.816613 0.709967 3.321640 2.158022 -1.191615 -17.190754 0.967349 -0.264856 -2.737015 -8.247859 21.858257 -23.343195 -5.659027 -0.290669 -67.599266 -21.125748 14.552556 -40.617985 5.000000 -9.323509 4.128305 -14.181749 -45.000000 7.615682 13.782619 -0.724195 68.919495 22.598082 27.874853 56.322353 -2.934264 -3.042382 -0.440729 14.098366 -45.000000 -41.275993 32.126423 0.598057 57.253345 -7.231126 -12.453114 -11.538218 2.795873 -11.833937 -23.668201 -25.016790 7.756006 52.811886 6.251759 9.146099 -23.774790 -14.117063 17.336765 
-47.375530 46.026825 10.329215 -0.259184 3.538120 169.892960 50.064018 5.589844 0.620846 3.273551 2.187331 -1.172101 -16.477333 0.921993 -0.238245 -1.696254 -8.567973 21.827143 -23.588881 -5.951601 -0.305765 -65.342575 -20.586239 12.875009 -42.608189 5.000000 -9.021818 3.950549 -14.548120 -45.000000 7.374334 13.236514 -0.695931 69.055458 23.511209 29.175938 56.665920 -3.410338 -3.284775 1.093496 14.023750 -45.000000 -38.401230 31.683796 1.166404 55.616009 -7.377621 -11.916586 -11.295823 3.123415 -11.744726 -21.324133 -25.064993 7.622407 50.988117 6.369084 8.736094 -23.151060 -14.094282 17.183550 
-47.303165 46.423397 10.007859 0.860110 3.439976 169.708359 49.242405 5.357448 0.530203 3.216219 2.206878 -1.133065 -15.754369 0.884832 -0.222749 -0.653633 -8.888861 21.787075 -23.834591 -6.234423 -0.320349 -63.107323 -19.994652 11.235238 -44.601368 5.000000 -8.710153 3.763043 -14.914120 -45.000000 7.133178 12.680655 -0.664954 69.205452 24.421848 30.484087 57.007282 -3.889495 -3.522070 2.615094 13.892174 -45.000000 -35.545300 31.219254 1.685853 53.957375 -7.521824 -11.344205 -11.105894 3.473627 -11.657092 -18.972420 -25.115061 7.487212 49.180920 6.496195 8.320230 -22.526081 -14.070140 17.030558 
-47.240513 46.811485 9.699039 1.889890 3.347756 169.180801 48.294804 5.096896 0.423076 3.225336 2.167806 -1.181876 -15.002127 0.847670 -0.207252 0.441336 -9.157469 22.002522 -23.709360 -6.357278 -0.335771 -60.942219 -19.391092 9.712883 -46.695526 5.000000 -8.730805 3.289450 -15.425424 -45.000000 6.803782 12.066278 -0.631073 69.568756 26.040924 32.653095 57.622974 -4.731517 -3.962756 4.563757 13.405985 -45.000000 -32.576019 30.906073 2.506397 52.229462 -7.628592 -10.772036 -10.910326 3.775792 -11.724346 -16.832821 -25.094664 7.517095 47.188911 6.567527 7.858695 -21.756535 -13.904921 16.964390 
-47.184345 47.193932 9.398576 2.853271 3.281559 168.418716 47.260410 4.818892 0.312468 3.282306 2.070120 -1.289258 -14.210761 0.831281 -0.185022 1.580480 -9.405657 22.377066 -23.348036 -6.357335 -0.335796 -58.828773 -18.772440 8.284588 -48.843540 5.000000 -8.930004 2.603841 -15.992970 -45.000000 6.415653 11.403139 -0.594805 70.151474 28.119890 35.450546 58.415535 -5.000000 -4.513183 6.748826 12.579992 -45.000000 -29.520573 30.653198 3.533387 50.437672 -7.657598 -10.164830 -10.739269 4.016686 -11.877355 -14.842737 -25.057497 7.728230 45.072800 6.672170 7.366824 -20.954712 -13.704946 16.851433 
-47.129303 47.570023 9.102324 3.781327 3.213408 167.519562 46.196304 4.518897 0.190987 3.320348 1.972439 -1.386888 -13.360810 0.765153 -0.165143 2.732673 -9.663894 22.841770 -22.917236 -6.341700 -0.325879 -56.711788 -18.090593 6.892996 -50.923824 5.000000 -9.068230 1.907004 -16.569229 -45.000000 6.086555 10.739994 -0.560498 70.844826 30.277723 38.332321 59.258217 -5.000000 -5.009578 8.877313 11.638573 -44.206131 -26.461817 30.386705 4.697548 48.661755 -7.630007 -9.499072 -10.581104 4.246589 -12.078994 -12.994061 -25.004410 8.073746 42.938129 6.731299 6.864468 -20.088448 -13.513409 16.756437 
-47.078747 47.920719 8.822912 4.573342 3.109673 166.112320 44.985153 4.151433 0.046311 3.301607 1.855250 -1.445484 -12.227202 0.526682 -0.109314 3.952198 -9.953820 23.697832 -22.262047 -6.185660 -0.317835 -54.505058 -17.282576 5.578231 -52.730145 5.000000 -9.152609 1.269457 -17.209513 -43.978287 6.040641 10.028086 -0.521884 71.613556 32.865730 41.385006 60.359104 -5.000000 -5.395271 11.070752 10.746824 -40.564255 -23.232067 30.214138 6.534473 46.822865 -7.473660 -8.719326 -10.447830 4.335306 -12.501495 -11.588592 -24.986166 8.896033 40.681023 6.705593 6.358915 -19.080641 -13.141084 16.799709 
-47.028198 48.271412 8.543505 5.355094 3.023940 164.705078 43.785046 3.778204 -0.085372 3.282690 1.738058 -1.513842 -11.084144 0.288211 -0.053482 5.167165 -10.256535 24.536858 -21.606937 -6.039373 -0.310291 -52.320515 -16.430281 4.284472 -54.546532 5.000000 -9.192576 0.586160 -17.838758 -41.939938 5.985453 9.316172 -0.483428 72.579018 35.408714 44.575535 61.452320 -5.000000 -5.745697 13.167500 9.632638 -36.967728 -20.019022 29.930214 8.346999 44.979523 -7.274956 -7.939241 -10.272407 4.428366 -12.942887 -10.174129 -24.968452 9.748794 38.422092 6.682562 5.819700 -18.092791 -12.816050 16.838551 
-46.955250 48.581207 8.274344 6.220046 3.035141 162.983246 42.735474 3.402970 -0.118826 3.137145 1.679472 -1.494319 -9.697260 -0.088363 0.003477 6.480541 -10.636868 25.636883 -21.088461 -5.873582 -0.301740 -50.011879 -15.230024 2.934876 -56.061218 5.000000 -9.119370 0.069526 -18.363655 -40.087112 6.047775 8.398427 -0.445596 73.707382 38.102390 45.000000 62.801834 -5.000000 -5.716280 14.827751 8.332202 -33.587769 -16.571190 29.674887 10.590624 43.127281 -6.984914 -7.183320 -10.039539 4.399446 -13.398441 -8.933944 -24.958565 11.068060 36.348309 6.703027 5.423688 -17.236799 -12.543499 16.887625 
-46.876705 48.880791 8.007748 7.099045 3.096795 161.172668 41.725109 3.022656 -0.131346 2.952224 1.640414 -1.474792 -8.242257 -0.496825 0.045539 7.810395 -11.070269 26.796570 -20.599306 -5.707789 -0.293185 -47.710201 -13.907279 1.598457 -57.506107 5.000000 -9.009182 -0.426999 -18.864307 -38.262405 6.148026 7.432927 -0.394271 75.053734 40.785076 45.000000 64.224960 -5.000000 -5.583882 16.285599 6.878270 -30.304621 -13.114061 29.321018 12.894863 41.280125 -6.672140 -6.412393 -9.773619 4.378447 -13.850383 -7.712076 -24.966404 12.472788 34.290371 6.721858 5.029429 -16.405746 -12.257243 16.930359 
-46.794094 49.162033 7.751101 7.908812 3.227316 159.399506 40.763920 2.736650 -0.089849 2.806639 1.601361 -1.445504 -7.002200 -0.866665 0.081742 9.039136 -11.474344 27.848684 -20.100365 -5.532245 -0.284125 -45.442955 -12.659115 0.452124 -58.749279 5.000000 -8.995559 -1.168835 -19.262985 -36.088448 6.150111 6.419720 -0.330992 76.584755 43.468559 45.000000 65.812477 -5.000000 -5.330156 17.610161 5.487380 -27.201796 -9.813876 28.878750 15.030805 39.463871 -6.349569 -5.702652 -9.437991 4.522843 -14.210896 -6.548604 -24.993538 13.698747 32.275974 6.688354 4.656768 -15.527877 -11.837433 17.027580 
